<svg id="Layer_2" data-name="Layer 2" xmlns="http://www.w3.org/2000/svg" viewBox="0 0 200 200"><defs><style>.cls-1{fill:#f69f1d;}.cls-2{opacity:0;}.cls-3{fill:#1e1e1e;}</style></defs><title>HD5_small_nobg</title><polygon class="cls-1" points="41.33 18.66 16.98 133.99 27.64 133.99 52.31 18.66 41.33 18.66"/><polygon class="cls-1" points="116.49 18.66 81.11 183.52 92.06 183.52 127.31 18.66 116.49 18.66"/><path class="cls-1" d="M143.33,182.22A41.52,41.52,0,0,0,155.54,178a55.17,55.17,0,0,0,8.63-5.86,46.79,46.79,0,0,0,7.1-7.37l0,0v0a65,65,0,0,0,11.24-21.6,91.72,91.72,0,0,0,4-27.48,71.78,71.78,0,0,0-2.92-21.71,34.72,34.72,0,0,0-8.5-14.45,35.68,35.68,0,0,0-14.74-8.37,75.69,75.69,0,0,0-22.21-2.88l-107.26,0-1.9,9,107-.3c13.5,0,23.34,3,29.26,9s8.91,15.74,8.91,29.12a84.63,84.63,0,0,1-3.5,24.74,64,64,0,0,1-10.43,20.46,33.9,33.9,0,0,1-15,11.58c-5.82,2.23-14.05,3.31-25.15,3.31H82.93l-1.82,8.5h42C131.94,183.52,138.75,183.08,143.33,182.22Z"/><g class="cls-2"><path class="cls-3" d="M30.88,68.16l107.26,0a75.69,75.69,0,0,1,22.21,2.88,35.62,35.62,0,0,1,14.74,8.37,34.72,34.72,0,0,1,8.5,14.45,71.78,71.78,0,0,1,2.92,21.71,91.72,91.72,0,0,1-4,27.48,65,65,0,0,1-11.24,21.6v0l0,0a46.79,46.79,0,0,1-7.1,7.37,55.17,55.17,0,0,1-8.63,5.86,41.52,41.52,0,0,1-12.21,4.27c-4.58.86-11.39,1.3-20.24,1.3h-42l1.82-8.5h37.13c11.1,0,19.33-1.08,25.15-3.31a33.9,33.9,0,0,0,15-11.58,64,64,0,0,0,10.43-20.46,84.63,84.63,0,0,0,3.5-24.74c0-13.38-3-23.18-8.91-29.12s-15.76-9-29.26-9l-107,.3,1.9-9m-2-2.5-.42,2-1.89,9-.64,3H29l107-.3c12.81,0,22.06,2.77,27.49,8.22s8.18,14.66,8.18,27.36a81.77,81.77,0,0,1-3.4,24,61.27,61.27,0,0,1-10,19.66,31.42,31.42,0,0,1-14,10.77c-5.54,2.12-13.47,3.15-24.26,3.15H80.9l-.42,2L78.66,183,78,186h45.08c9,0,16-.45,20.71-1.35a43.75,43.75,0,0,0,12.95-4.53,58.34,58.34,0,0,0,9-6.13,49.13,49.13,0,0,0,7.48-7.76,67.52,67.52,0,0,0,11.68-22.42A94.42,94.42,0,0,0,189,115.6a74.16,74.16,0,0,0-3-22.47,37.47,37.47,0,0,0-9.12-15.48,38.18,38.18,0,0,0-15.76-9,78.3,78.3,0,0,0-23-3l-107.26,0Z"/></g></svg>